<?xml version="1.0" encoding="UTF-8"?> <svg xmlns="http://www.w3.org/2000/svg" xmlns:xlink="http://www.w3.org/1999/xlink" width="989px" height="122px" viewBox="0 0 989 122" version="1.1"><title>logo-outline</title><g id="Page-1" stroke="none" stroke-width="1" fill="none" fill-rule="evenodd"><g id="logo-outline" fill="#000000" fill-rule="nonzero" stroke="#000000" stroke-width="3"><path d="M17.3,97 L17.3,66.1 L54.6,66.1 L54.6,61.5 L17.3,61.5 L17.3,31.6 L59,31.6 L59,27 L12.2,27 L12.2,97 L17.3,97 Z M75.7,97 L84.6,77.3 L125.2,77.3 L134.2,97 L139.7,97 L107.5,27 L102.4,27 L70.2,97 L75.7,97 Z M123.3,73 L86.6,73 L104.9,32.6 L123.3,73 Z M191,97.5 C196,97.5 200.65,96.6666667 204.95,95 C209.25,93.3333333 212.9,90.9 215.9,87.7 L215.9,87.7 L212.7,84.4 C207.033333,90 199.866667,92.8 191.2,92.8 C185.333333,92.8 180,91.4666667 175.2,88.8 C170.4,86.1333333 166.633333,82.45 163.9,77.75 C161.166667,73.05 159.8,67.8 159.8,62 C159.8,56.2 161.166667,50.95 163.9,46.25 C166.633333,41.55 170.4,37.8666667 175.2,35.2 C180,32.5333333 185.333333,31.2 191.2,31.2 C199.933333,31.2 207.1,33.9666667 212.7,39.5 L212.7,39.5 L215.9,36.2 C212.9,33 209.266667,30.5833333 205,28.95 C200.733333,27.3166667 196.066667,26.5 191,26.5 C184.133333,26.5 177.95,28.0333333 172.45,31.1 C166.95,34.1666667 162.616667,38.4 159.45,43.8 C156.283333,49.2 154.7,55.2666667 154.7,62 C154.7,68.7333333 156.283333,74.8 159.45,80.2 C162.616667,85.6 166.95,89.8333333 172.45,92.9 C177.95,95.9666667 184.133333,97.5 191,97.5 Z M291.3,97 L291.3,92.4 L248.1,92.4 L248.1,63.7 L285.4,63.7 L285.4,59.2 L248.1,59.2 L248.1,31.6 L289.8,31.6 L289.8,27 L243,27 L243,97 L291.3,97 Z M360.7,97 L360.7,66.1 L398,66.1 L398,61.5 L360.7,61.5 L360.7,31.6 L402.4,31.6 L402.4,27 L355.6,27 L355.6,97 L360.7,97 Z M457.5,97.5 C464.366667,97.5 470.566667,95.9666667 476.1,92.9 C481.633333,89.8333333 485.983333,85.6 489.15,80.2 C492.316667,74.8 493.9,68.7333333 493.9,62 C493.9,55.2666667 492.316667,49.2 489.15,43.8 C485.983333,38.4 481.633333,34.1666667 476.1,31.1 C470.566667,28.0333333 464.366667,26.5 457.5,26.5 C450.633333,26.5 444.433333,28.05 438.9,31.15 C433.366667,34.25 429.016667,38.5 425.85,43.9 C422.683333,49.3 421.1,55.3333333 421.1,62 C421.1,68.6666667 422.683333,74.7 425.85,80.1 C429.016667,85.5 433.366667,89.75 438.9,92.85 C444.433333,95.95 450.633333,97.5 457.5,97.5 Z M457.5,92.8 C451.633333,92.8 446.316667,91.4666667 441.55,88.8 C436.783333,86.1333333 433.033333,82.45 430.3,77.75 C427.566667,73.05 426.2,67.8 426.2,62 C426.2,56.2 427.566667,50.95 430.3,46.25 C433.033333,41.55 436.783333,37.8666667 441.55,35.2 C446.316667,32.5333333 451.633333,31.2 457.5,31.2 C463.366667,31.2 468.666667,32.5333333 473.4,35.2 C478.133333,37.8666667 481.866667,41.55 484.6,46.25 C487.333333,50.95 488.7,56.2 488.7,62 C488.7,67.8 487.333333,73.05 484.6,77.75 C481.866667,82.45 478.133333,86.1333333 473.4,88.8 C468.666667,91.4666667 463.366667,92.8 457.5,92.8 Z M549,97.5 C557.866667,97.5 564.766667,94.9333333 569.7,89.8 C574.633333,84.6666667 577.1,77.1666667 577.1,67.3 L577.1,67.3 L577.1,27 L572,27 L572,67.1 C572,75.7 570.033333,82.1333333 566.1,86.4 C562.166667,90.6666667 556.5,92.8 549.1,92.8 C541.633333,92.8 535.933333,90.6666667 532,86.4 C528.066667,82.1333333 526.1,75.7 526.1,67.1 L526.1,67.1 L526.1,27 L521,27 L521,67.3 C521,77.1666667 523.45,84.6666667 528.35,89.8 C533.25,94.9333333 540.133333,97.5 549,97.5 Z M616,97 L616,36.2 L663.7,97 L667.9,97 L667.9,27 L662.8,27 L662.8,87.8 L615.2,27 L610.9,27 L610.9,97 L616,97 Z M730,97 C737.266667,97 743.716667,95.5 749.35,92.5 C754.983333,89.5 759.366667,85.35 762.5,80.05 C765.633333,74.75 767.2,68.7333333 767.2,62 C767.2,55.2666667 765.633333,49.25 762.5,43.95 C759.366667,38.65 754.983333,34.5 749.35,31.5 C743.716667,28.5 737.266667,27 730,27 L730,27 L702.3,27 L702.3,97 L730,97 Z M729.6,92.4 L707.4,92.4 L707.4,31.6 L729.6,31.6 C736.066667,31.6 741.766667,32.8833333 746.7,35.45 C751.633333,38.0166667 755.433333,41.6 758.1,46.2 C760.766667,50.8 762.1,56.0666667 762.1,62 C762.1,67.9333333 760.766667,73.2 758.1,77.8 C755.433333,82.4 751.633333,85.9833333 746.7,88.55 C741.766667,91.1166667 736.066667,92.4 729.6,92.4 L729.6,92.4 Z M800,97 L800,74.1 L820,74.1 C822.066667,74.1 824.333333,73.9333333 826.8,73.6 L826.8,73.6 L843.5,97 L849.3,97 L831.8,72.5 C837.066667,70.9666667 841.116667,68.3166667 843.95,64.55 C846.783333,60.7833333 848.2,56.1333333 848.2,50.6 C848.2,43.2 845.7,37.4166667 840.7,33.25 C835.7,29.0833333 828.8,27 820,27 L820,27 L794.9,27 L794.9,97 L800,97 Z M820,69.6 L800,69.6 L800,31.6 L820,31.6 C827.466667,31.6 833.166667,33.25 837.1,36.55 C841.033333,39.85 843,44.5333333 843,50.6 C843,56.6666667 841.033333,61.35 837.1,64.65 C833.166667,67.95 827.466667,69.6 820,69.6 L820,69.6 Z M882,97 L882,27 L876.9,27 L876.9,97 L882,97 Z M939.6,21.3 L955.3,9.5 L948.1,9.5 L934.2,21.3 L939.6,21.3 Z M964.7,97 L964.7,92.4 L921.5,92.4 L921.5,63.7 L958.8,63.7 L958.8,59.2 L921.5,59.2 L921.5,31.6 L963.2,31.6 L963.2,27 L916.4,27 L916.4,97 L964.7,97 Z" id="FACEFOUNDRIÉ"></path><path d="M976.954,41.066 C978.391333,41.066 979.704,40.7213333 980.892,40.032 C982.08,39.3426667 983.018667,38.4003333 983.708,37.205 C984.397333,36.0096667 984.742,34.6933333 984.742,33.256 C984.742,31.8186667 984.404667,30.5096667 983.73,29.329 C983.055333,28.1483333 982.127667,27.2206667 980.947,26.546 C979.766333,25.8713333 978.45,25.534 976.998,25.534 C975.546,25.534 974.226,25.8786667 973.038,26.568 C971.85,27.2573333 970.915,28.196 970.233,29.384 C969.551,30.572 969.21,31.8773333 969.21,33.3 C969.21,34.7226667 969.551,36.028 970.233,37.216 C970.915,38.404 971.846333,39.3426667 973.027,40.032 C974.207667,40.7213333 975.516667,41.066 976.954,41.066 Z M976.954,40.428 C975.634,40.428 974.435,40.1126667 973.357,39.482 C972.279,38.8513333 971.428333,37.9896667 970.805,36.897 C970.181667,35.8043333 969.87,34.6053333 969.87,33.3 C969.87,31.9946667 970.181667,30.7956667 970.805,29.703 C971.428333,28.6103333 972.282667,27.7486667 973.368,27.118 C974.453333,26.4873333 975.663333,26.172 976.998,26.172 C978.332667,26.172 979.539,26.4836667 980.617,27.107 C981.695,27.7303333 982.542,28.581 983.158,29.659 C983.774,30.737 984.082,31.936 984.082,33.256 C984.082,34.576 983.766667,35.7823333 983.136,36.875 C982.505333,37.9676667 981.647333,38.833 980.562,39.471 C979.476667,40.109 978.274,40.428 976.954,40.428 Z M974.864,37.81 L974.864,34.708 L977.5436,34.70712 C977.731333,34.7047733 977.872133,34.6977333 977.966,34.686 L977.966,34.686 L979.99,37.81 L980.914,37.81 L978.78,34.51 C979.44,34.3046667 979.949667,33.9636667 980.309,33.487 C980.668333,33.0103333 980.848,32.4273333 980.848,31.738 C980.848,30.8433333 980.536333,30.1283333 979.913,29.593 C979.289667,29.0576667 978.45,28.79 977.394,28.79 L977.394,28.79 L974.006,28.79 L974.006,37.81 L974.864,37.81 Z M977.328,33.96 L974.842,33.96 L974.842,29.538 L977.328,29.538 C978.178667,29.538 978.838667,29.7323333 979.308,30.121 C979.777333,30.5096667 980.012,31.0486667 980.012,31.738 C980.012,32.442 979.777333,32.9883333 979.308,33.377 C978.838667,33.7656667 978.178667,33.96 977.328,33.96 L977.328,33.96 Z" id="®"></path></g></g></svg> 