<svg width="60" height="30" viewBox="0 0 60 30" fill="none" xmlns="http://www.w3.org/2000/svg">
<path d="M59.5751 9.64234H52.2368V29.9985H59.5751V9.64234Z" fill="#333430"/>
<path d="M0 20.3301C0 18.3494 0.484563 16.5529 1.45223 14.9464C2.41991 13.3383 3.72226 12.0536 5.36367 11.0894C7.00361 10.1252 8.81672 9.64234 10.8074 9.64234H13.7104V16.6341H11.2905C10.2137 16.6341 9.28674 17.0242 8.50823 17.7999C7.72828 18.5771 7.3383 19.5007 7.3383 20.5723V30H0V20.3301Z" fill="#333430"/>
<path d="M20.2425 8.19526C19.1133 8.19526 18.1457 7.79362 17.3395 6.99033C16.5334 6.18705 16.1303 5.22281 16.1303 4.09763C16.1303 2.97245 16.5334 2.00822 17.3395 1.20493C18.1457 0.401643 19.1148 0 20.2425 0C21.3703 0 22.3394 0.401643 23.1455 1.20493C23.9517 2.00822 24.3548 2.97245 24.3548 4.09763C24.3548 5.22281 23.9517 6.18705 23.1455 6.99033C22.3394 7.79362 21.3703 8.19526 20.2425 8.19526Z" fill="#333430"/>
<path d="M23.8717 9.64234H16.5334V29.9985H23.8717V9.64234Z" fill="#333430"/>
<path d="M37.9851 8.9188C40.082 8.9188 41.9227 9.40019 43.5103 10.3659C45.095 11.3301 46.374 12.6293 47.3417 14.2634C48.3094 15.8975 48.7939 17.7332 48.7939 19.7675V29.9985H41.5357L41.4556 19.5268C41.4556 18.5104 41.1326 17.6781 40.488 17.0358C39.8433 16.3934 39.0081 16.0715 37.988 16.0715C37.0727 16.0715 36.2811 16.3934 35.6089 17.0358C34.9366 17.6781 34.6004 18.5104 34.6004 19.5268V29.9985H27.2621V19.7675C27.2621 17.7318 27.7467 15.8975 28.7144 14.2634C29.6821 12.6293 30.9728 11.3301 32.5851 10.3659C34.1988 9.40164 35.9988 8.9188 37.988 8.9188H37.9851Z" fill="#333430"/>
<path d="M55.8878 8.19526C54.7586 8.19526 53.7909 7.79362 52.9847 6.99033C52.1786 6.18705 51.7755 5.22281 51.7755 4.09763C51.7755 2.97245 52.1786 2.00822 52.9847 1.20493C53.7909 0.401643 54.76 0 55.8878 0C57.0155 0 57.9846 0.401643 58.7908 1.20493C59.5969 2.00822 60 2.97245 60 4.09763C60 5.22281 59.5969 6.18705 58.7908 6.99033C57.9846 7.79362 57.0155 8.19526 55.8878 8.19526Z" fill="#333430"/>
</svg>
